<?xml version="1.0" encoding="utf-8"?>
<!-- Generator: Adobe Illustrator 19.2.1, SVG Export Plug-In . SVG Version: 6.00 Build 0)  -->
<svg version="1.1" id="Calque_1" xmlns="http://www.w3.org/2000/svg" xmlns:xlink="http://www.w3.org/1999/xlink" x="0px" y="0px"
	 viewBox="0 0 616.7 170.2" style="enable-background:new 0 0 616.7 170.2;" xml:space="preserve">
<style type="text/css">
	.st0{fill:#131B21;}
</style>
<g>
	<g>
		<path class="st0" d="M142.2,92.9c0,4.5,1.9,9.4,5.9,9.4c5.2,0,5.6-7.2,5.6-12.4c0-3.8-0.3-8.2-0.3-8.2
			C146.2,81.7,142.2,87.3,142.2,92.9 M183.4,77.5c0,18.6,3.5,21.8,9.1,19.8l2.5,3.1c-13.9,13.8-22.6,21.3-24.1,21.3
			c-4.7,0-8-4.6-11.9-10.1c0,0-8.8,10.1-22.5,10.1c-11.4,0-22.8-7.7-22.8-25c0-12.4,11.7-28.2,39.6-27.8v-8.6
			c0-4.8,1.2-15.1-8.9-15.1c-3.1,0-7.1,2-8.1,6.3c2,1.6,2.5,3.7,2.5,5.8c0,4.1-3.2,7.7-10,7.7c-6.7,0-10.9-5.6-10.9-11.2
			c0-14.9,17.3-23.8,36.2-23.8c10.8,0,29.2,3.8,29.2,30.1V77.5z"/>
		<path class="st0" d="M41.3,107.8l0,14.4c0,13.6,6.1,17.5,9.6,18.6v6.5c-4,2.2-10,4.1-26.6,4.1c-14.7,0-20.6-1.8-24.2-4.5v-6.4
			c4.5-1.3,7-4.8,8.5-19.3c1-9.6,1.4-20.5,1.4-30.3c0-10.6-0.1-42.6-1.4-53.1C6.5,20.7,5.8,18.1,0,16.1V9.6c7.6-2.4,15.1-3,23.7-3
			c8.5,0,16.7,0.5,24.7,3l-0.1,6.5c-3,0-7.1-0.7-7.1,8.8v54.9h2c0,0,30.5-48.5,32-52.2c2.9-7.3-2.2-11.6-2.2-11.6V9.6
			c8.7-2.1,15.9-3,24.3-3c5.7,0,15.8,0.5,23,3v6.5c-10.4-0.1-16.4,8.8-16.4,8.8c-2.5,3.2-36.5,55.7-37.6,57.6
			c38.2,16,46.2,61.2,71.3,61.2c6.8,0,10.3-2.7,10.3-2.7l3.3,3.3c-2,12.2-16,25.9-32.4,25.9C80,170.2,68.8,107.8,41.3,107.8"/>
		<path class="st0" d="M399.5,26.8c0,4.9,3.3,9.7,10.3,9.7c7.4,0,11.1-6.5,11.1-13.9c0-11.8-10.2-22.6-28.8-22.6
			c-14.6,0-29.7,7.4-29.7,28.3c0,10.3,2.6,17.5,2.6,26.1c0,5.8-5.4,7.6-11,7.6v18h12.1l1.9,57c0,11.8-4.3,15.2-9.7,15.2
			c-2.2,0-4.2-0.9-6.1-2.1l-2,3.7c4.2,7.2,14.4,14.7,25.9,14.7c13.8,0,26.8-8.6,26.8-26.8c0-15.3-5.2-49.5-6.4-61.5h17V60.7
			l-18.6,0.7c-0.2-5.6-2.6-32-2.6-39.8c0-5,3.1-7.3,6.4-7.3c3.9,0,4.9,2.8,5.3,4.3C401.7,19.5,399.5,22.8,399.5,26.8"/>
		<path class="st0" d="M457.3,81.5c0,7,0.4,17.8,7.8,17.8c9.9,0,8.5-16.4,8.5-24.8c0-5.8,0.1-15.6-0.5-21.2c-0.4-3.8-3-4.9-5.4-5.2
			l-2.5-5.7c12.5-7.6,28.8-11.9,34.1-11.9c5.1,0,5.7,3.5,5.7,8.3c0,5.6-0.3,12.5-0.3,18.1V92c0,9,3.3,11.2,6.4,11.4l1.6,4.1
			c-1.6,2.8-29.1,13.7-32.1,13.7c-3.7,0-3.9-3.2-6.3-10.5c-2.6,1.9-11.9,10.5-23.4,10.5c-28.5,0-23.8-26.2-23.8-52.5
			c0-16.7-1.6-19.9-6.6-20.7l-2.5-5.7c15.7-8.6,28.2-11.9,33.5-11.9c3.8,0,6,2.3,6,6.7V81.5z"/>
		<path class="st0" d="M558.9,90c0,21.7,1.7,23.2,5.3,24v4.9c-6.2,1.7-17.6,2.8-22.5,2.8c-4.4,0-16.5-0.7-22.6-2.7v-5
			c3.2,0.4,9.1-0.6,9.1-15.5V60.9c0-11.2-3.1-12.5-6.1-12.8l-2.5-5.7C538,32,549.1,30.5,552.7,30.5c5.8,0,5,7.5,5.6,14.5
			c13.3-9.7,18.6-14.5,27.5-14.5c21.2,0,21.7,22.2,21.7,34.2c0,5.9,0.1,22.4,0.1,30.5c0,8.1-0.3,19.4,9,18.9v5
			c-4.8,1.5-13.7,2.7-22.8,2.7c-4.1,0-15.1-1.1-22.3-2.8V114c2.9-0.4,5.4-2.6,5.4-16.9c0-4.3,0-10.3,0-16.5
			c-0.1-11.8-1.4-23.9-9.9-23.9c-8.8,0-8.1,12.1-8.1,19.9V90z"/>
		<path class="st0" d="M299.3,92.9c0,4.5,1.9,9.4,5.9,9.4c5.2,0,5.6-7.2,5.6-12.4c0-3.8-0.3-8.2-0.3-8.2
			C303.2,81.7,299.3,87.3,299.3,92.9 M340.4,77.5c0,18.6,3.5,21.8,9.1,19.8l2.5,3.1c-13.9,13.8-22.6,21.3-24.1,21.3
			c-4.8,0-8-4.6-11.9-10.1c0,0-8.8,10.1-22.5,10.1c-11.4,0-22.8-7.7-22.8-25c0-12.4,11.7-28.2,39.6-27.8v-8.6
			c0-4.8,1.2-15.1-8.9-15.1c-3.1,0-7.1,2-8,6.3c2,1.6,2.5,3.7,2.5,5.8c0,4.1-3.2,7.7-10,7.7c-6.7,0-10.9-5.6-10.9-11.2
			c0-14.9,17.3-23.8,36.2-23.8c10.8,0,29.2,3.8,29.2,30.1V77.5z"/>
		<path class="st0" d="M206.3,66.4c0-14.4-1-17.5-6.2-18.3l-2.5-5.7c16.5-9.6,28.9-11.9,32.4-11.9c4.7,0,4.9,3.3,5.2,5
			c0.4,2.9,1.2,8.4,1.4,9.9c5.5-7.1,10.5-15.6,20.7-15.6c8.3,0,13.5,6.7,13.5,13.6c0,9-6,15.4-13.6,15.4c-6,0-9.7-1.7-11.9-2.7
			c-2.9,0-6,2-8.3,4.8v35.4c0,8.7,1.1,18.8,9.1,17.8v4.9c-4.2,1.5-14.1,2.7-23.8,2.7c-6,0-19.7-0.6-25.1-2.7v-4.9
			c5.9,0.9,9.1-4.9,9.1-16.5V66.4z"/>
	</g>
</g>
</svg>
